<?xml version="1.0" encoding="utf-8"?>
<!-- Generator: Adobe Illustrator 19.2.0, SVG Export Plug-In . SVG Version: 6.00 Build 0)  -->
<svg version="1.1" id="Layer_1" xmlns="http://www.w3.org/2000/svg" xmlns:xlink="http://www.w3.org/1999/xlink" x="0px" y="0px"
	 viewBox="0 0 80 42" style="enable-background:new 0 0 80 42;" xml:space="preserve">
<style type="text/css">
	.st0{fill:none;}
</style>
<g>
	<path class="st0" d="M25.8,141c1.1,2,1.8,4.2,1.9,6.6l6.6-6.6H25.8z"/>
	<polygon class="st0" points="48,141.1 65.6,159 71.3,159 53.3,141 47.9,141 	"/>
	<circle class="st0" cx="13.6" cy="148" r="6"/>
	<path d="M25.8,141c-2.4-4.2-6.9-7-12.1-7s-9.7,2.8-12.1,7c-1.2,2.1-1.9,4.4-1.9,7c0,7.6,6.1,13.8,13.6,14l14.3-14.3
		C27.6,145.2,26.9,143,25.8,141z M13.6,154c-3.3,0-6-2.7-6-6s2.7-6,6-6s6,2.7,6,6S17,154,13.6,154z"/>
	<path d="M13.3,162h0.4C13.5,162,13.4,162,13.3,162L13.3,162z"/>
	<path d="M57.5,141h-4.2l18,18h-5.7l-17.7-18H44l-17.8,18h-5.7l18-18h-4.2l-21,21c0.1,0,0.2,0,0.4,0h13.8l18.5-18.5L64.4,162h14.1
		L57.5,141z"/>
	<path d="M13.6,134c5.2,0,9.7,2.8,12.1,7H72l7-7H13.6z"/>
</g>
<circle cx="13.6" cy="126" r="6"/>
<g>
	<path class="st0" d="M26.8,21c1.1,2,1.8,4.2,1.9,6.6l6.6-6.6H26.8z"/>
	<polygon class="st0" points="49,21.1 66.6,39 72.3,39 54.3,21 48.9,21 	"/>
	<circle class="st0" cx="14.6" cy="28" r="6"/>
	<path d="M26.8,21c-2.4-4.2-6.9-7-12.1-7S5,16.8,2.5,21c-1.2,2.1-1.9,4.4-1.9,7c0,7.6,6.1,13.8,13.6,14l14.3-14.3
		C28.6,25.2,27.9,23,26.8,21z M14.6,34c-3.3,0-6-2.7-6-6s2.7-6,6-6s6,2.7,6,6S18,34,14.6,34z"/>
	<path d="M14.3,42h0.4C14.5,42,14.4,42,14.3,42L14.3,42z"/>
	<path d="M58.5,21h-4.2l18,18h-5.7L48.9,21H45L27.2,39h-5.7l18-18h-4.2l-21,21c0.1,0,0.2,0,0.4,0h13.8l18.5-18.5L65.4,42h14.1
		L58.5,21z"/>
	<path d="M14.6,14c5.2,0,9.7,2.8,12.1,7H73l7-7H14.6z"/>
</g>
<circle cx="14.6" cy="6" r="6"/>
</svg>
