<?xml version="1.0" encoding="utf-8"?>
<!-- Generator: Adobe Illustrator 19.2.0, SVG Export Plug-In . SVG Version: 6.00 Build 0)  -->
<svg version="1.1" id="Layer_1" xmlns="http://www.w3.org/2000/svg" xmlns:xlink="http://www.w3.org/1999/xlink" x="0px" y="0px"
	 viewBox="0 0 80 42" style="enable-background:new 0 0 80 42;" xml:space="preserve">
<style type="text/css">
	.st0{fill:#6BA8D4;}
</style>
<g>
	<path class="st0" d="M26.8,21c-2.4-4.2-6.9-7-12.1-7S5,16.8,2.5,21c-1.2,2.1-1.9,4.4-1.9,7c0,7.6,6.1,13.8,13.6,14l14.3-14.3
		C28.6,25.2,27.9,23,26.8,21z M14.6,34c-3.3,0-6-2.7-6-6s2.7-6,6-6s6,2.7,6,6S18,34,14.6,34z"/>
	<path class="st0" d="M14.3,43h0.4C14.5,43,14.4,43,14.3,43L14.3,43z"/>
	<path class="st0" d="M73,21l7-7H14.6c5.2,0,9.7,2.8,12.1,7h8.5l-21,21c0.1,0,0.2,0,0.4,0h13.8l18.5-18.5L65.4,42h14.1l-21-21H73z
		 M27.2,39h-5.7l18-18H45L27.2,39z"/>
</g>
<circle class="st0" cx="14.6" cy="6" r="6"/>
</svg>
